<?xml version="1.0" encoding="UTF-8"?>
<svg id="Layer_1" xmlns="http://www.w3.org/2000/svg" version="1.1" viewBox="0 0 1080 1080">
  <!-- Generator: Adobe Illustrator 30.1.0, SVG Export Plug-In . SVG Version: 2.1.1 Build 136)  -->
  <defs>
    <style>
      .st0 {
        fill: #fff;
      }
    </style>
  </defs>
  <g>
    <path class="st0" d="M410.48,485.04c17.21,0,31.03,9.14,35.91,25.71h24.86c-6.8-29.96-31.45-45.69-60.14-45.69-41.65,0-66.94,28.9-66.94,75.23s25.08,74.8,66.3,74.8c28.48,0,52.7-16.15,60.56-44.84h-25.08c-5.53,16.36-18.91,24.86-35.49,24.86-26.56,0-42.08-20.61-42.08-54.83s15.73-55.25,42.08-55.25Z"/>
    <path class="st0" d="M665.4,596.18c-18.49,0-29.33-12.96-30.6-36.13h82.03v-5.53c0-36.34-19.76-58.44-52.49-58.44s-52.7,21.25-52.7,59.72,20.4,59.29,53.76,59.29c26.56,0,46.11-13.39,52.28-39.74h-23.8c-3.82,14.03-14.02,20.83-28.48,20.83ZM664.33,515c16.15,0,26.14,10.41,28.9,29.54h-57.8c2.76-19.13,12.54-29.54,28.9-29.54Z"/>
    <path class="st0" d="M831.77,540.5c0-26.35-15.3-44.41-46.11-44.41-28.26,0-45.48,14.88-49.09,39.95h22.74c2.13-12.75,9.99-20.83,24.65-20.83,17.43,0,25.07,8.93,25.07,25.5v2.55c-20.4.21-35.7,1.49-50.79,6.59-17,5.74-25.5,17.21-25.5,32.73,0,21.68,15.72,32.51,38.68,32.51,11.91,0,24.63-4.56,34.03-14.68h4.04c.35,4.57,1.03,8.73,2.3,11.92h23.8c-2.55-6.16-3.82-14.03-3.82-27.63v-44.2ZM775.67,597.24c-12.11,0-19.98-5.95-19.98-15.51,0-12.96,9.78-22.52,53.34-22.95v5.1c0,18.27-14.45,33.36-33.36,33.36Z"/>
    <path class="st0" d="M904.19,596.18c-19.13,0-29.75-14.66-29.75-40.38s10.2-40.59,29.11-40.59c13.18,0,23.59,7.23,26.35,23.38h22.74c-3.82-28.26-23.8-42.5-49.09-42.5-32.09,0-52.28,21.25-52.28,59.72s19.76,59.29,52.49,59.29c25.08,0,44.63-12.54,49.51-40.8h-22.53c-3.4,14.45-12.96,21.89-26.56,21.89Z"/>
    <path class="st0" d="M1022.96,515.33v-16.27h-24.44v-26.14h-22.74v26.14h-15.3v17.64h15.3v61.84c0,24.44,10.41,36.55,32.51,36.55,6.37,0,11.69-.85,14.24-2.12v-16.58h-4.46c-15.94,0-19.55-6.16-19.55-19.13v-36.3h0v-15.62s0-5.46-6.98-5.46v-4.55h31.42Z"/>
    <path class="st0" d="M490.06,467.82h54.19c31.24,0,51,16.15,51,41.65,0,16.36-7.44,27.84-20.4,34.21,8.5,4.46,13.17,12.33,16.36,25.29l10.84,43.35h-25.08l-8.71-38.68c-3.82-16.57-10.2-19.76-26.14-19.76h-28.26v58.44h-23.8v-144.5ZM513.86,486.95v47.81h29.33c17.64,0,27.63-9.35,27.63-24.01s-9.99-23.8-27.2-23.8h-29.75Z"/>
  </g>
  <g>
    <path class="st0" d="M171.67,548.79c-24.18,0-43.85-19.67-43.85-43.86s19.67-43.85,43.85-43.85,43.86,19.67,43.86,43.85-19.67,43.86-43.86,43.86ZM171.67,478.5c-14.57,0-26.43,11.86-26.43,26.43s11.86,26.43,26.43,26.43,26.43-11.86,26.43-26.43-11.86-26.43-26.43-26.43Z"/>
    <path class="st0" d="M101.38,619.07c-24.18,0-43.85-19.67-43.85-43.85s19.67-43.86,43.85-43.86,43.86,19.67,43.86,43.86-19.67,43.85-43.86,43.85ZM101.38,548.79c-14.57,0-26.43,11.86-26.43,26.43s11.86,26.43,26.43,26.43,26.43-11.86,26.43-26.43-11.86-26.43-26.43-26.43Z"/>
    <path class="st0" d="M241.96,619.07c-24.18,0-43.86-19.67-43.86-43.85s19.67-43.86,43.86-43.86,43.85,19.67,43.85,43.86-19.67,43.85-43.85,43.85ZM241.96,548.79c-14.57,0-26.43,11.86-26.43,26.43s11.86,26.43,26.43,26.43,26.43-11.86,26.43-26.43-11.86-26.43-26.43-26.43Z"/>
  </g>
</svg>