<?xml version="1.0" encoding="UTF-8"?>
<svg id="Layer_1" xmlns="http://www.w3.org/2000/svg" version="1.1" viewBox="0 0 1080 1080">
  <!-- Generator: Adobe Illustrator 30.1.0, SVG Export Plug-In . SVG Version: 2.1.1 Build 136)  -->
  <path d="M532.84,576.35c-100.7,0-182.62-81.93-182.62-182.63s81.92-182.62,182.62-182.62,182.63,81.92,182.63,182.62-81.93,182.63-182.63,182.63ZM532.84,283.67c-60.69,0-110.06,49.37-110.06,110.06s49.37,110.07,110.06,110.07,110.07-49.38,110.07-110.07-49.38-110.06-110.07-110.06Z"/>
  <path d="M240.15,869.04c-100.7,0-182.62-81.92-182.62-182.62s81.92-182.63,182.62-182.63,182.63,81.93,182.63,182.63-81.93,182.62-182.63,182.62ZM240.15,576.35c-60.69,0-110.06,49.38-110.06,110.07s49.37,110.06,110.06,110.06,110.07-49.37,110.07-110.06-49.38-110.07-110.07-110.07Z"/>
  <path d="M825.53,869.04c-100.7,0-182.63-81.92-182.63-182.62s81.93-182.63,182.63-182.63,182.62,81.93,182.62,182.63-81.92,182.62-182.62,182.62ZM825.53,576.35c-60.69,0-110.07,49.38-110.07,110.07s49.38,110.06,110.07,110.06,110.06-49.37,110.06-110.06-49.37-110.07-110.06-110.07Z"/>
</svg>